<svg width="25" height="21" viewBox="0 0 25 21" fill="none" xmlns="http://www.w3.org/2000/svg">
<path d="M19.2057 18.9299C18.7705 18.9299 18.3532 18.7337 18.0456 18.3845C17.7379 18.0352 17.565 17.5616 17.565 17.0676C17.565 16.5737 17.7379 16.1 18.0456 15.7508C18.3532 15.4015 18.7705 15.2053 19.2057 15.2053C19.6408 15.2053 20.0581 15.4015 20.3657 15.7508C20.6734 16.1 20.8463 16.5737 20.8463 17.0676C20.8463 17.5616 20.6734 18.0352 20.3657 18.3845C20.0581 18.7337 19.6408 18.9299 19.2057 18.9299ZM20.8463 7.75616L22.99 10.86H18.1119V7.75616M6.08075 18.9299C5.64563 18.9299 5.22833 18.7337 4.92066 18.3845C4.61298 18.0352 4.44013 17.5616 4.44013 17.0676C4.44013 16.5737 4.61298 16.1 4.92066 15.7508C5.22833 15.4015 5.64563 15.2053 6.08075 15.2053C6.51586 15.2053 6.93316 15.4015 7.24084 15.7508C7.54851 16.1 7.72136 16.5737 7.72136 17.0676C7.72136 17.5616 7.54851 18.0352 7.24084 18.3845C6.93316 18.7337 6.51586 18.9299 6.08075 18.9299ZM21.3931 5.89386H18.1119V0.927734H2.79952C1.58547 0.927734 0.612038 2.0327 0.612038 3.4108V17.0676H2.79952C2.79952 18.0555 3.14522 19.0028 3.76057 19.7013C4.37592 20.3998 5.21051 20.7922 6.08075 20.7922C6.95098 20.7922 7.78558 20.3998 8.40092 19.7013C9.01627 19.0028 9.36197 18.0555 9.36197 17.0676H15.9244C15.9244 18.0555 16.2701 19.0028 16.8855 19.7013C17.5008 20.3998 18.3354 20.7922 19.2057 20.7922C20.0759 20.7922 20.9105 20.3998 21.5258 19.7013C22.1412 19.0028 22.4869 18.0555 22.4869 17.0676H24.6744V10.86L21.3931 5.89386Z" fill="black"/>
</svg>
