<svg width="43" height="35" viewBox="0 0 43 35" fill="none" xmlns="http://www.w3.org/2000/svg">
<path d="M5.52679 15.7466L7.05822 14.8436L9.47627 10.8707L10.2017 10.5998L11.0077 14.5727L9.95988 14.7533L9.15386 13.1281L8.58965 15.7466H11.1689L13.9094 16.4689L14.9572 15.7466L16.811 17.8233L17.5364 13.9407L18.826 15.3854L19.6321 14.1213L20.9217 13.7601L22.7755 11.864L23.0979 10.8707L24.6294 11.1416L25.2742 12.1348L24.1457 14.7533L26.9668 13.1281V12.4057L28.0146 12.1348L29.2236 13.3989L30.3521 11.864V10.7804L32.2865 9.24545L33.0925 7.98134H34.3015L36.4778 3.10551L38.3316 0.938477L39.057 2.11229L38.0092 3.64727L38.3316 4.6405L39.3794 4.91138L40.2661 8.97457V12.4057L41.7169 14.663L42.4423 17.8233L39.863 16.0174L38.7346 10.7804L38.0898 10.8707L38.0092 14.3922L36.0748 17.8233L35.5912 22.97L36.8002 23.2409L37.3644 22.5185L38.5734 24.0535L39.5406 28.7488L39.46 31.7285H38.251L37.848 27.4847L36.9614 28.7488L35.1882 28.2973L33.6567 26.9429L32.0447 27.6653L32.1253 30.6449L30.7551 31.0061L28.8206 32.6314L26.4026 32.2702L25.516 31.7285L24.0651 31.9993L24.5488 32.6314L23.3397 33.444L22.3725 32.9023L20.5993 33.8052L17.9394 32.2702L16.8916 29.6517L16.005 29.742L14.9572 28.8391L14.8766 28.1167L11.6525 27.7556L11.0883 29.742L8.99266 28.6585L7.94484 26.7623H5.7686L5.52679 29.8323L4.23717 30.2838L3.59236 33.0829L3.10875 32.6314L1.01311 26.672L3.51175 25.3176L3.10875 22.7894L2.70574 20.0806L3.75356 18.3651L3.43115 17.3718L4.88198 15.566L5.52679 15.7466Z" fill="black" stroke="black" stroke-width="0.5" stroke-miterlimit="10" stroke-linecap="round" stroke-linejoin="round"/>
</svg>
